<svg height="110.00000000000001" width="200" viewBox="0 0 361 200" fill="none" xmlns="http://www.w3.org/2000/svg"><path fill-rule="evenodd" clip-rule="evenodd" d="M143.832 2.606C142.228 5.053 142.225 5.832 143.78 15.356C144.691 20.935 145.73 27.668 146.089 30.319L146.741 35.137L142.867 34.438C140.736 34.054 138.543 33.429 137.993 33.05C137.443 32.671 134.968 31.782 132.493 31.076C130.018 30.37 126.959 29.389 125.696 28.896C121.398 27.22 113.673 27.82 111.493 30C109.126 32.367 109.142 31.957 110.969 43.959C111.76 49.162 112.211 53.615 111.97 53.856C111.729 54.097 108.589 53.328 104.992 52.147C96.433 49.338 88.456 49.278 85.989 52.005C84.318 53.851 84.279 54.564 85.495 61.01C86.221 64.86 86.541 68.285 86.205 68.621C85.87 68.957 84.155 68.729 82.395 68.116C78.158 66.639 69.203 66.69 67.693 68.2C67.031 68.862 66.493 72.046 66.493 75.307C66.493 80.535 66.292 81.133 64.743 80.508C63.78 80.12 61.327 79.566 59.291 79.276C56.14 78.828 55.143 79.196 52.585 81.755C50.011 84.328 49.664 85.279 50.167 88.38C50.634 91.254 50.431 92 49.183 92C48.318 92 47.333 91.55 46.993 91C46.653 90.45 44.905 90 43.108 90C39.119 90 35.493 93.482 35.493 97.314C35.493 99.584 35.063 100 32.716 100C29.151 100 25.493 102.561 25.493 105.057C25.493 106.472 24.802 107 22.948 107C21.548 107 19.275 108.127 17.898 109.504C15.578 111.825 15.444 112.464 16.075 118.254C16.45 121.689 17.11 125.189 17.542 126.031C17.975 126.873 18.64 130.923 19.02 135.031C19.401 139.139 20.526 146.775 21.521 152C22.516 157.225 23.616 163.75 23.966 166.5C24.316 169.25 24.787 172.418 25.014 173.54C25.321 175.059 24.052 176.652 20.034 179.79L14.643 184C14.643 184 6 191.5 0 199.5H361C354 191 344.486 183.964 344.486 183.964L339.43 180.137C336.65 178.033 330.914 174.245 326.684 171.719C322.454 169.193 318.283 166.31 317.415 165.313C315.599 163.227 303.058 152.096 300.483 150.285C300.483 150.285 284.701 135.323 268.488 121C263.819 116.875 259.322 112.765 258.496 111.866C257.669 110.968 254.25 107.765 250.897 104.749L244.8 99.267L249.397 98.044C251.925 97.372 258.718 95.789 264.493 94.527C270.268 93.265 277.243 91.555 279.993 90.729C282.743 89.902 287.243 88.744 289.993 88.155C292.743 87.566 299.858 85.921 305.803 84.499C314.216 82.488 317.914 82.062 322.478 82.578C327.89 83.19 328.541 83.043 330.918 80.666C336.605 74.979 333.067 66.693 323.227 62.65C314.969 59.258 304.598 55.354 301.493 54.468C300.118 54.076 298.543 53.436 297.993 53.047C297.443 52.657 294.068 51.312 290.493 50.059C286.918 48.806 282.643 47.191 280.993 46.471C279.343 45.751 272.854 43.31 266.572 41.047C260.291 38.784 253.766 36.311 252.072 35.553C250.379 34.794 240.443 31 229.993 27.122C219.543 23.244 202.668 16.885 192.493 12.991C182.318 9.097 172.193 5.224 169.993 4.383C161.103 0.987003 156.907 0 151.357 0C146.192 0 145.348 0.292003 143.832 2.606Z" fill="#0760AC"></path><path d="M41.5 171C41.5001 169.5 42.5 170 42.5 170L34.5 118L26 114.5C26 114.5 24.5 114 22.5 114.5L32.5 176.5L41.5 171Z" fill="#FFF51A"></path><path d="M49.5 167.5C49.5 165 53.5 166 53.5 166L50.5 145L48.5 143L49 133.5L45.5 111.5L36.5 108C36.5 108 34.5 107.5 33 108L42.5 170.5L49.5 167.5Z" fill="#FFF51A"></path><path d="M96 124.5L104.5 130L107 145C103 145 102.5 147 102.5 147C104 150 105.5 152 105.5 152L100.5 153C98 151.5 98.5 153.5 98.5 153.5C98.5 153.5 92 154.5 86.5 156L73 74.0001C74.5 73.5001 77 74.0001 77 74.0001L96 80.0001L99 98C95 97.5 95 99 95 99L96 124.5Z" fill="#FFF51A"></path><path d="M84.5 156.5L86.5 156L86 152L83.5 151L85.5 150L83 134.5L77.5 131L76 109.5L78.5 108L76 92.0001L61.5 87.0001C61.5 87.0001 60 86.5001 58 87.0001L69 161L79.5 158C79.5 158 79 151 84.5 156.5Z" fill="#FFF51A"></path><path d="M59 116L62 114L60.5 102.5L47.5 98.0001C47.5 98.0001 45.5 97.5001 43.5 98.0001L53.5 166C53.5 166 57.5 164 61.5 163C61.5 163 60.5 159.5 61.5 159C63 158.5 67 161.5 67 161.5L69 161L68.5 157C68.5 157 63.5 155 63.5 153C63.5 151 67.5 150 67.5 150L66 139L60 136L59 116Z" fill="#FFF51A"></path><path d="M96.5002 56.5001L122 65.5001L124.5 81.0001L117 85.5001L118.5 114.5L131.5 122L134 138C125 137 123.5 142.5 123.5 142.5C123.5 145 132.5 148.5 132.5 148.5C127.5 148.5 123 149 123 149C123 149 122.5 148.5 121.5 148.5C120.5 148.5 120.5 149.5 120.5 149.5C120.5 149.5 113.5 150.5 108 151.5L92.0002 56.5001C94.0002 55.5001 96.5002 56.5001 96.5002 56.5001Z" fill="#FFF51A"></path><path d="M151.5 136C151.5 136 153.5 124 169.5 130L167 114L147.5 101L145.5 68.0001L159 60.5001L156.5 46.0001L121.5 35.0001C121.5 35.0001 119.5 34.5001 117 35.0001L135.5 148C141 147 150.5 146.5 150.5 146.5C150.5 146.5 149.5 141.5 155 146C160 145.5 166 146 166 146C166 146 151.5 138.5 151.5 136Z" fill="#FFF51A"></path><path d="M185 54.5001V41.0001C185 41.0001 324 76.5 324.5 76.5001C325.5 76 327.5 73 321.5 69.5001C321.5 69.5001 158 7 155.5 6.50005C155.5 6.50005 153 6.00005 150 6.50005L172 146C180 145.5 189.5 146 189.5 146C189.5 146 189 142 189 137.5C189 137.5 195 140 202.5 147C207.5 147 214.5 148 214.5 148C214.5 148 206 142.5 189 129C189 129 193.5 90.5001 250 151.5C274 155 297.5 163 310 168.5L185 54.5001Z" fill="#FFF51A"></path><path d="M329.5 184H334.5C334.5 184 288.5 148 177 148C65.5 148 24.5 184 24.5 184H29.5C74 153 229.5 127.5 329.5 184Z" fill="#FFF51A"></path><path d="M140 163L143.817 174.747L156.168 174.747L146.176 182.007L149.992 193.753L140 186.493L130.008 193.753L133.824 182.007L123.832 174.747L136.183 174.747L140 163Z" fill="#FFF51A"></path><path d="M176.668 153L180.485 164.747L192.836 164.747L182.844 172.007L186.66 183.753L176.668 176.493L166.676 183.753L170.492 172.007L160.5 164.747L172.851 164.747L176.668 153Z" fill="#FFF51A"></path><path d="M213.168 163L216.985 174.747L229.336 174.747L219.344 182.007L223.16 193.753L213.168 186.493L203.176 193.753L206.992 182.007L197 174.747L209.351 174.747L213.168 163Z" fill="#FFF51A"></path></svg>