<svg width="150" height="150" viewBox="0 0 1000 1000" fill="none" xmlns="http://www.w3.org/2000/svg"><path d="M824.27 310.385C581.828 317.517 500.539 184.878 500.539 184.878C500.539 184.878 423.528 316.09 173.956 313.237C142.581 830.952 499.113 975 499.113 975C499.113 975 867.054 806.707 824.27 310.385Z" fill="#FFEB00"></path><path d="M812.857 321.989C564.743 317.712 500.576 202.256 500.576 202.256C500.576 202.256 427.853 320.563 185.443 324.839C155.423 825.445 499.15 963.414 499.15 963.414C499.15 963.414 853.793 801.908 812.857 321.989Z" fill="#005BAE"></path><path d="M393.528 301.802C293.651 343.18 199.481 336.045 199.481 336.045C188.066 403.106 210.895 530.092 210.895 530.092C210.895 530.092 399.235 505.836 393.528 301.802Z" fill="#FFEB00"></path><path d="M298.046 463.66C297.209 463.66 296.505 463.398 295.934 462.874C295.363 462.35 295.078 461.704 295.078 460.936V425.464C295.078 424.66 295.363 424.014 295.934 423.525C296.505 423.001 297.209 422.739 298.046 422.739H309.46C312.314 422.739 314.844 423.316 317.051 424.468C319.258 425.621 320.97 427.228 322.187 429.289C323.443 431.315 324.071 433.655 324.071 436.31C324.071 438.86 323.443 441.13 322.187 443.121C320.97 445.112 319.258 446.667 317.051 447.784C314.844 448.902 312.314 449.461 309.46 449.461H301.013V460.936C301.013 461.704 300.728 462.35 300.157 462.874C299.625 463.398 298.921 463.66 298.046 463.66ZM301.013 444.431H309.46C311.21 444.431 312.751 444.082 314.083 443.383C315.415 442.685 316.461 441.724 317.222 440.501C317.983 439.279 318.363 437.882 318.363 436.31C318.363 434.633 317.983 433.166 317.222 431.909C316.461 430.616 315.415 429.603 314.083 428.87C312.751 428.136 311.21 427.769 309.46 427.769H301.013V444.431Z" fill="#005BAE"></path><path d="M246.092 463.746C243.165 463.746 240.417 463.22 237.851 462.169C235.321 461.083 233.098 459.595 231.182 457.703C229.303 455.776 227.821 453.534 226.736 450.977C225.688 448.419 225.164 445.652 225.164 442.674C225.164 439.731 225.688 436.999 226.736 434.477C227.821 431.919 229.303 429.695 231.182 427.803C233.098 425.876 235.321 424.37 237.851 423.284C240.381 422.198 243.128 421.655 246.092 421.655C248.876 421.655 251.261 422.005 253.249 422.706C255.273 423.406 257.298 424.562 259.322 426.174C259.611 426.384 259.828 426.612 259.972 426.857C260.153 427.067 260.262 427.295 260.298 427.54C260.37 427.75 260.406 428.013 260.406 428.328C260.406 428.994 260.153 429.555 259.647 430.01C259.177 430.43 258.599 430.676 257.912 430.746C257.225 430.781 256.557 430.553 255.906 430.062C254.569 428.941 253.177 428.083 251.731 427.488C250.321 426.892 248.442 426.594 246.092 426.594C243.96 426.594 241.954 427.015 240.074 427.855C238.194 428.696 236.532 429.852 235.086 431.324C233.676 432.795 232.574 434.512 231.779 436.473C230.983 438.4 230.586 440.467 230.586 442.674C230.586 444.916 230.983 447.018 231.779 448.98C232.574 450.907 233.676 452.606 235.086 454.077C236.532 455.548 238.194 456.704 240.074 457.545C241.954 458.351 243.96 458.754 246.092 458.754C247.936 458.754 249.671 458.456 251.297 457.86C252.96 457.23 254.55 456.372 256.069 455.286C256.719 454.83 257.352 454.637 257.966 454.708C258.617 454.743 259.159 454.988 259.593 455.443C260.027 455.864 260.243 456.459 260.243 457.23C260.243 457.58 260.171 457.931 260.027 458.281C259.882 458.596 259.665 458.894 259.376 459.174C257.424 460.681 255.328 461.819 253.087 462.59C250.882 463.36 248.55 463.746 246.092 463.746Z" fill="#005BAE"></path><path d="M265.229 394.317C264.391 394.317 263.688 394.032 263.117 393.461C262.546 392.89 262.261 392.186 262.261 391.349V356.364C262.261 355.489 262.546 354.785 263.117 354.252C263.688 353.681 264.391 353.396 265.229 353.396H291.025C291.9 353.396 292.604 353.662 293.137 354.195C293.67 354.69 293.936 355.355 293.936 356.193C293.936 356.992 293.67 357.638 293.137 358.133C292.604 358.628 291.9 358.875 291.025 358.875H268.196L268.196 370.746H287.943C288.819 370.746 289.522 371.012 290.055 371.545C290.588 372.039 290.854 372.686 290.854 373.485C290.854 374.284 290.588 374.95 290.055 375.483C289.522 375.977 288.819 376.225 287.943 376.225H268.196L268.196 388.838H291.025C291.9 388.838 292.604 389.085 293.137 389.58C293.67 390.075 293.936 390.721 293.936 391.521C293.936 392.358 293.67 393.042 293.137 393.575C292.604 394.07 291.9 394.317 291.025 394.317H265.229Z" fill="#005BAE"></path><path d="M350.724 473.019C350.724 473.019 360.712 464.458 364.992 453.044L781.622 515.824C784.476 568.616 775.915 588.591 760.22 618.554L350.724 473.019Z" fill="#FFEB00"></path><path d="M407.796 336.045C407.796 336.045 407.796 351.74 404.943 364.582L627.526 306.082C627.526 306.082 586.148 293.241 557.612 267.558L407.796 336.045Z" fill="#FFEB00"></path><path d="M382.114 427.361C382.114 427.361 393.528 410.239 396.382 398.825L795.89 347.459C804.451 373.142 801.597 418.8 793.036 435.922L382.114 427.361Z" fill="#FFEB00"></path><path d="M315.053 502.982C315.053 502.982 323.614 498.702 329.321 491.568L720.268 712.724C698.866 778.358 653.208 806.894 653.208 806.894L315.053 502.982Z" fill="#FFEB00"></path><path d="M286.517 520.105C286.517 520.105 293.651 518.678 299.358 512.971L583.294 879.662C554.758 922.466 503.393 942.442 503.393 942.442L286.517 520.105Z" fill="#FFEB00"></path><path d="M257.98 532.946C257.98 532.946 266.541 531.519 273.675 527.238L340.735 805.467C340.735 805.467 303.638 784.065 275.102 717.005L257.98 532.946Z" fill="#FFEB00"></path><path d="M500.539 25L516.236 73.3093H567.031L525.937 103.166L541.633 151.475L500.539 121.619L459.445 151.475L475.141 103.166L434.047 73.3093H484.842L500.539 25Z" fill="#005BAE"></path><path d="M500.539 36.4141L513.673 76.8362L556.175 76.8362L521.79 101.818L534.924 142.24L500.539 117.258L466.154 142.24L479.288 101.818L444.903 76.8362L487.405 76.8362L500.539 36.4141Z" fill="#FFEB00"></path><path d="M335.028 87.7798L350.725 136.089H401.521L360.426 165.946L376.123 214.255L335.028 184.398L293.934 214.255L309.631 165.946L268.536 136.089H319.332L335.028 87.7798Z" fill="#005BAE"></path><path d="M335.028 99.1938L348.162 139.616H390.664L356.279 164.598L369.413 205.02L335.028 180.038L300.643 205.02L313.777 164.598L279.392 139.616H321.894L335.028 99.1938Z" fill="#FFEB00"></path><path d="M656.062 86.353L671.758 134.662H722.554L681.459 164.519L697.156 212.828L656.062 182.972L614.967 212.828L630.664 164.519L589.57 134.662H640.365L656.062 86.353Z" fill="#005BAE"></path><path d="M656.062 97.7671L669.196 138.189L711.698 138.189L677.313 163.171L690.447 203.594L656.062 178.611L621.677 203.594L634.811 163.171L600.426 138.189L642.928 138.189L656.062 97.7671Z" fill="#FFEB00"></path></svg>